<mxfile host="app.diagrams.net" modified="2021-06-19T15:47:21.516Z" agent="5.0 (X11; CrOS aarch64 13904.41.0) AppleWebKit/537.36 (KHTML, like Gecko) Chrome/91.0.4472.81 Safari/537.36" etag="jiYDI_VUqx3VqFEb_dRU" version="14.7.10" type="github">
  <diagram id="sJBhdvuV9b7ZUemU425o" name="Page-1">
    <mxGraphModel dx="852" dy="514" grid="1" gridSize="10" guides="1" tooltips="1" connect="1" arrows="1" fold="1" page="1" pageScale="1" pageWidth="850" pageHeight="1100" math="0" shadow="0">
      <root>
        <mxCell id="0" />
        <mxCell id="1" parent="0" />
        <mxCell id="QNZDILw_uNZRHjUqVIkb-20" style="edgeStyle=orthogonalEdgeStyle;rounded=0;orthogonalLoop=1;jettySize=auto;html=1;exitX=0.5;exitY=1;exitDx=0;exitDy=0;exitPerimeter=0;entryX=0.5;entryY=0;entryDx=0;entryDy=0;" edge="1" parent="1" source="QNZDILw_uNZRHjUqVIkb-1" target="QNZDILw_uNZRHjUqVIkb-2">
          <mxGeometry relative="1" as="geometry" />
        </mxCell>
        <mxCell id="QNZDILw_uNZRHjUqVIkb-1" value="Start" style="strokeWidth=2;html=1;shape=mxgraph.flowchart.terminator;whiteSpace=wrap;" vertex="1" parent="1">
          <mxGeometry x="360" y="20" width="100" height="60" as="geometry" />
        </mxCell>
        <mxCell id="QNZDILw_uNZRHjUqVIkb-21" style="edgeStyle=orthogonalEdgeStyle;rounded=0;orthogonalLoop=1;jettySize=auto;html=1;exitX=0.5;exitY=1;exitDx=0;exitDy=0;entryX=0.5;entryY=0;entryDx=0;entryDy=0;" edge="1" parent="1" source="QNZDILw_uNZRHjUqVIkb-2" target="QNZDILw_uNZRHjUqVIkb-3">
          <mxGeometry relative="1" as="geometry" />
        </mxCell>
        <mxCell id="QNZDILw_uNZRHjUqVIkb-2" value="input name" style="shape=parallelogram;html=1;strokeWidth=2;perimeter=parallelogramPerimeter;whiteSpace=wrap;rounded=1;arcSize=12;size=0.23;" vertex="1" parent="1">
          <mxGeometry x="360" y="100" width="100" height="60" as="geometry" />
        </mxCell>
        <mxCell id="QNZDILw_uNZRHjUqVIkb-22" style="edgeStyle=orthogonalEdgeStyle;rounded=0;orthogonalLoop=1;jettySize=auto;html=1;exitX=0.5;exitY=1;exitDx=0;exitDy=0;entryX=0.5;entryY=0;entryDx=0;entryDy=0;" edge="1" parent="1" source="QNZDILw_uNZRHjUqVIkb-3" target="QNZDILw_uNZRHjUqVIkb-4">
          <mxGeometry relative="1" as="geometry" />
        </mxCell>
        <mxCell id="QNZDILw_uNZRHjUqVIkb-3" value="input &lt;br&gt;apartment number" style="shape=parallelogram;html=1;strokeWidth=2;perimeter=parallelogramPerimeter;whiteSpace=wrap;rounded=1;arcSize=12;size=0.23;" vertex="1" parent="1">
          <mxGeometry x="360" y="180" width="100" height="60" as="geometry" />
        </mxCell>
        <mxCell id="QNZDILw_uNZRHjUqVIkb-23" style="edgeStyle=orthogonalEdgeStyle;rounded=0;orthogonalLoop=1;jettySize=auto;html=1;exitX=0.5;exitY=1;exitDx=0;exitDy=0;entryX=0.5;entryY=0;entryDx=0;entryDy=0;" edge="1" parent="1" source="QNZDILw_uNZRHjUqVIkb-4" target="QNZDILw_uNZRHjUqVIkb-5">
          <mxGeometry relative="1" as="geometry" />
        </mxCell>
        <mxCell id="QNZDILw_uNZRHjUqVIkb-4" value="input street" style="shape=parallelogram;html=1;strokeWidth=2;perimeter=parallelogramPerimeter;whiteSpace=wrap;rounded=1;arcSize=12;size=0.23;" vertex="1" parent="1">
          <mxGeometry x="360" y="260" width="100" height="60" as="geometry" />
        </mxCell>
        <mxCell id="QNZDILw_uNZRHjUqVIkb-24" style="edgeStyle=orthogonalEdgeStyle;rounded=0;orthogonalLoop=1;jettySize=auto;html=1;exitX=0.5;exitY=1;exitDx=0;exitDy=0;entryX=0.5;entryY=0;entryDx=0;entryDy=0;" edge="1" parent="1" source="QNZDILw_uNZRHjUqVIkb-5" target="QNZDILw_uNZRHjUqVIkb-6">
          <mxGeometry relative="1" as="geometry" />
        </mxCell>
        <mxCell id="QNZDILw_uNZRHjUqVIkb-5" value="input city" style="shape=parallelogram;html=1;strokeWidth=2;perimeter=parallelogramPerimeter;whiteSpace=wrap;rounded=1;arcSize=12;size=0.23;" vertex="1" parent="1">
          <mxGeometry x="360" y="340" width="100" height="60" as="geometry" />
        </mxCell>
        <mxCell id="QNZDILw_uNZRHjUqVIkb-19" style="edgeStyle=orthogonalEdgeStyle;rounded=0;orthogonalLoop=1;jettySize=auto;html=1;exitX=0.5;exitY=1;exitDx=0;exitDy=0;entryX=0.5;entryY=0;entryDx=0;entryDy=0;" edge="1" parent="1" source="QNZDILw_uNZRHjUqVIkb-6" target="QNZDILw_uNZRHjUqVIkb-7">
          <mxGeometry relative="1" as="geometry" />
        </mxCell>
        <mxCell id="QNZDILw_uNZRHjUqVIkb-6" value="input province" style="shape=parallelogram;html=1;strokeWidth=2;perimeter=parallelogramPerimeter;whiteSpace=wrap;rounded=1;arcSize=12;size=0.23;" vertex="1" parent="1">
          <mxGeometry x="360" y="420" width="100" height="60" as="geometry" />
        </mxCell>
        <mxCell id="QNZDILw_uNZRHjUqVIkb-18" style="edgeStyle=orthogonalEdgeStyle;rounded=0;orthogonalLoop=1;jettySize=auto;html=1;exitX=0.5;exitY=1;exitDx=0;exitDy=0;entryX=0.5;entryY=0;entryDx=0;entryDy=0;entryPerimeter=0;" edge="1" parent="1" source="QNZDILw_uNZRHjUqVIkb-7" target="QNZDILw_uNZRHjUqVIkb-8">
          <mxGeometry relative="1" as="geometry" />
        </mxCell>
        <mxCell id="QNZDILw_uNZRHjUqVIkb-7" value="input postal" style="shape=parallelogram;html=1;strokeWidth=2;perimeter=parallelogramPerimeter;whiteSpace=wrap;rounded=1;arcSize=12;size=0.23;" vertex="1" parent="1">
          <mxGeometry x="360" y="500" width="100" height="60" as="geometry" />
        </mxCell>
        <mxCell id="QNZDILw_uNZRHjUqVIkb-12" style="edgeStyle=orthogonalEdgeStyle;rounded=0;orthogonalLoop=1;jettySize=auto;html=1;exitX=0.5;exitY=1;exitDx=0;exitDy=0;exitPerimeter=0;entryX=0.5;entryY=0;entryDx=0;entryDy=0;" edge="1" parent="1" source="QNZDILw_uNZRHjUqVIkb-8" target="QNZDILw_uNZRHjUqVIkb-9">
          <mxGeometry relative="1" as="geometry" />
        </mxCell>
        <mxCell id="QNZDILw_uNZRHjUqVIkb-13" style="edgeStyle=orthogonalEdgeStyle;rounded=0;orthogonalLoop=1;jettySize=auto;html=1;exitX=1;exitY=0.5;exitDx=0;exitDy=0;exitPerimeter=0;entryX=0.5;entryY=0;entryDx=0;entryDy=0;" edge="1" parent="1" source="QNZDILw_uNZRHjUqVIkb-8" target="QNZDILw_uNZRHjUqVIkb-10">
          <mxGeometry relative="1" as="geometry" />
        </mxCell>
        <mxCell id="QNZDILw_uNZRHjUqVIkb-8" value="if apartment number = none" style="strokeWidth=2;html=1;shape=mxgraph.flowchart.decision;whiteSpace=wrap;" vertex="1" parent="1">
          <mxGeometry x="360" y="570" width="100" height="100" as="geometry" />
        </mxCell>
        <mxCell id="QNZDILw_uNZRHjUqVIkb-16" style="edgeStyle=orthogonalEdgeStyle;rounded=0;orthogonalLoop=1;jettySize=auto;html=1;exitX=0.5;exitY=1;exitDx=0;exitDy=0;entryX=0.5;entryY=0;entryDx=0;entryDy=0;entryPerimeter=0;" edge="1" parent="1" source="QNZDILw_uNZRHjUqVIkb-9" target="QNZDILw_uNZRHjUqVIkb-11">
          <mxGeometry relative="1" as="geometry" />
        </mxCell>
        <mxCell id="QNZDILw_uNZRHjUqVIkb-9" value="print &lt;br&gt;everything other than apartment number" style="shape=parallelogram;html=1;strokeWidth=2;perimeter=parallelogramPerimeter;whiteSpace=wrap;rounded=1;arcSize=12;size=0.23;" vertex="1" parent="1">
          <mxGeometry x="325" y="690" width="170" height="70" as="geometry" />
        </mxCell>
        <mxCell id="QNZDILw_uNZRHjUqVIkb-17" style="edgeStyle=orthogonalEdgeStyle;rounded=0;orthogonalLoop=1;jettySize=auto;html=1;exitX=0.5;exitY=1;exitDx=0;exitDy=0;entryX=0.5;entryY=0;entryDx=0;entryDy=0;entryPerimeter=0;" edge="1" parent="1" source="QNZDILw_uNZRHjUqVIkb-10" target="QNZDILw_uNZRHjUqVIkb-11">
          <mxGeometry relative="1" as="geometry">
            <Array as="points">
              <mxPoint x="590" y="780" />
            </Array>
          </mxGeometry>
        </mxCell>
        <mxCell id="QNZDILw_uNZRHjUqVIkb-10" value="print everything" style="shape=parallelogram;html=1;strokeWidth=2;perimeter=parallelogramPerimeter;whiteSpace=wrap;rounded=1;arcSize=12;size=0.23;" vertex="1" parent="1">
          <mxGeometry x="510" y="690" width="160" height="70" as="geometry" />
        </mxCell>
        <mxCell id="QNZDILw_uNZRHjUqVIkb-11" value="Stop" style="strokeWidth=2;html=1;shape=mxgraph.flowchart.terminator;whiteSpace=wrap;" vertex="1" parent="1">
          <mxGeometry x="360" y="800" width="100" height="60" as="geometry" />
        </mxCell>
        <mxCell id="QNZDILw_uNZRHjUqVIkb-14" value="No" style="text;html=1;align=center;verticalAlign=middle;resizable=0;points=[];autosize=1;strokeColor=none;" vertex="1" parent="1">
          <mxGeometry x="505" y="590" width="30" height="20" as="geometry" />
        </mxCell>
        <mxCell id="QNZDILw_uNZRHjUqVIkb-15" value="Yes" style="text;html=1;align=center;verticalAlign=middle;resizable=0;points=[];autosize=1;strokeColor=none;" vertex="1" parent="1">
          <mxGeometry x="410" y="660" width="40" height="20" as="geometry" />
        </mxCell>
      </root>
    </mxGraphModel>
  </diagram>
</mxfile>
